<svg xmlns="http://www.w3.org/2000/svg" width="800" height="500" viewBox="0 0 800 500">
  <defs>
    <linearGradient id="g1" x1="0%" y1="0%" x2="100%" y2="100%">
      <stop offset="0%" stop-color="#0f1225"/>
      <stop offset="100%" stop-color="#1e3a5f"/>
    </linearGradient>
    <linearGradient id="g2" x1="0%" y1="0%" x2="100%" y2="100%">
      <stop offset="0%" stop-color="#164bd7"/>
      <stop offset="100%" stop-color="#6aa0ff"/>
    </linearGradient>
  </defs>
  <rect width="800" height="500" fill="url(#g1)"/>
  <rect x="100" y="60" width="600" height="380" rx="16" fill="rgba(255,255,255,0.06)" stroke="rgba(255,255,255,0.12)"/>
  <!-- header -->
  <rect x="140" y="95" width="520" height="42" rx="8" fill="rgba(255,255,255,0.08)"/>
  <text x="160" y="121" font-family="Arial" font-size="13" letter-spacing="3" fill="rgba(255,255,255,0.5)">REAL ESTATE PLATFORM</text>
  <!-- house card -->
  <rect x="140" y="160" width="240" height="210" rx="12" fill="rgba(255,255,255,0.08)" stroke="rgba(255,255,255,0.10)"/>
  <rect x="140" y="160" width="240" height="130" rx="12" fill="url(#g2)" opacity="0.85"/>
  <text x="260" y="235" font-family="Arial" font-size="48" text-anchor="middle" fill="white">⌂</text>
  <rect x="160" y="300" width="200" height="12" rx="6" fill="rgba(255,255,255,0.18)"/>
  <rect x="160" y="322" width="140" height="10" rx="5" fill="rgba(255,255,255,0.10)"/>
  <rect x="160" y="345" width="80" height="18" rx="9" fill="white" opacity="0.9"/>
  <text x="200" y="358" font-family="Arial" font-size="10" font-weight="700" text-anchor="middle" fill="#0f1225">$ 450k</text>
  <!-- side listings -->
  <rect x="400" y="160" width="260" height="64" rx="10" fill="rgba(255,255,255,0.07)" stroke="rgba(255,255,255,0.08)"/>
  <rect x="420" y="176" width="44" height="44" rx="8" fill="url(#g2)" opacity="0.7"/>
  <rect x="476" y="180" width="120" height="10" rx="5" fill="rgba(255,255,255,0.18)"/>
  <rect x="476" y="198" width="90" height="8" rx="4" fill="rgba(255,255,255,0.08)"/>
  <rect x="476" y="214" width="60" height="6" rx="3" fill="rgba(255,255,255,0.06)"/>
  <rect x="400" y="238" width="260" height="64" rx="10" fill="rgba(255,255,255,0.07)" stroke="rgba(255,255,255,0.08)"/>
  <rect x="420" y="254" width="44" height="44" rx="8" fill="url(#g2)" opacity="0.5"/>
  <rect x="476" y="258" width="120" height="10" rx="5" fill="rgba(255,255,255,0.18)"/>
  <rect x="476" y="276" width="90" height="8" rx="4" fill="rgba(255,255,255,0.08)"/>
  <rect x="476" y="292" width="60" height="6" rx="3" fill="rgba(255,255,255,0.06)"/>
  <rect x="400" y="316" width="260" height="64" rx="10" fill="rgba(255,255,255,0.07)" stroke="rgba(255,255,255,0.08)"/>
  <rect x="420" y="332" width="44" height="44" rx="8" fill="url(#g2)" opacity="0.35"/>
  <rect x="476" y="336" width="120" height="10" rx="5" fill="rgba(255,255,255,0.18)"/>
  <rect x="476" y="354" width="90" height="8" rx="4" fill="rgba(255,255,255,0.08)"/>
  <rect x="476" y="372" width="60" height="6" rx="3" fill="rgba(255,255,255,0.06)"/>
</svg>
